  <svg
        viewBox="0 0 1100 569"
        fill="transparent"
        xmlns="http://www.w3.org/2000/svg"
      >
        <path
          d="M532.994 256.646V267.766H531.17V262.902H525.938V267.766H524.114V256.646H525.938V261.414H531.17V256.646H532.994ZM536.323 257.782C535.993 257.782 535.715 257.67 535.491 257.446C535.267 257.222 535.155 256.945 535.155 256.614C535.155 256.284 535.267 256.006 535.491 255.782C535.715 255.558 535.993 255.446 536.323 255.446C536.643 255.446 536.915 255.558 537.139 255.782C537.363 256.006 537.475 256.284 537.475 256.614C537.475 256.945 537.363 257.222 537.139 257.446C536.915 257.67 536.643 257.782 536.323 257.782ZM537.219 258.95V267.766H535.395V258.95H537.219ZM541.438 260.23C541.705 259.782 542.057 259.436 542.494 259.19C542.942 258.934 543.47 258.806 544.078 258.806V260.694H543.614C542.899 260.694 542.355 260.876 541.982 261.238C541.619 261.601 541.438 262.23 541.438 263.126V267.766H539.614V258.95H541.438V260.23ZM553.835 263.142C553.835 263.473 553.813 263.772 553.771 264.038H547.035C547.088 264.742 547.349 265.308 547.819 265.734C548.288 266.161 548.864 266.374 549.547 266.374C550.528 266.374 551.221 265.964 551.627 265.142H553.595C553.328 265.953 552.843 266.62 552.139 267.142C551.445 267.654 550.581 267.91 549.547 267.91C548.704 267.91 547.947 267.724 547.275 267.35C546.613 266.966 546.091 266.433 545.707 265.75C545.333 265.057 545.147 264.257 545.147 263.35C545.147 262.444 545.328 261.649 545.691 260.966C546.064 260.273 546.581 259.74 547.243 259.366C547.915 258.993 548.683 258.806 549.547 258.806C550.379 258.806 551.12 258.988 551.771 259.35C552.421 259.713 552.928 260.225 553.291 260.886C553.653 261.537 553.835 262.289 553.835 263.142ZM551.931 262.566C551.92 261.894 551.68 261.356 551.211 260.95C550.741 260.545 550.16 260.342 549.467 260.342C548.837 260.342 548.299 260.545 547.851 260.95C547.403 261.345 547.136 261.884 547.051 262.566H551.931ZM570.458 258.806C571.151 258.806 571.77 258.95 572.314 259.238C572.869 259.526 573.301 259.953 573.61 260.518C573.93 261.084 574.09 261.766 574.09 262.566V267.766H572.282V262.838C572.282 262.049 572.085 261.446 571.69 261.03C571.295 260.604 570.757 260.39 570.074 260.39C569.391 260.39 568.847 260.604 568.442 261.03C568.047 261.446 567.85 262.049 567.85 262.838V267.766H566.042V262.838C566.042 262.049 565.845 261.446 565.45 261.03C565.055 260.604 564.517 260.39 563.834 260.39C563.151 260.39 562.607 260.604 562.202 261.03C561.807 261.446 561.61 262.049 561.61 262.838V267.766H559.786V258.95H561.61V259.958C561.909 259.596 562.287 259.313 562.746 259.11C563.205 258.908 563.695 258.806 564.218 258.806C564.922 258.806 565.551 258.956 566.106 259.254C566.661 259.553 567.087 259.985 567.386 260.55C567.653 260.017 568.069 259.596 568.634 259.286C569.199 258.966 569.807 258.806 570.458 258.806ZM584.491 263.142C584.491 263.473 584.47 263.772 584.427 264.038H577.691C577.744 264.742 578.006 265.308 578.475 265.734C578.944 266.161 579.52 266.374 580.203 266.374C581.184 266.374 581.878 265.964 582.283 265.142H584.251C583.984 265.953 583.499 266.62 582.795 267.142C582.102 267.654 581.238 267.91 580.203 267.91C579.36 267.91 578.603 267.724 577.931 267.35C577.27 266.966 576.747 266.433 576.363 265.75C575.99 265.057 575.803 264.257 575.803 263.35C575.803 262.444 575.984 261.649 576.347 260.966C576.72 260.273 577.238 259.74 577.899 259.366C578.571 258.993 579.339 258.806 580.203 258.806C581.035 258.806 581.776 258.988 582.427 259.35C583.078 259.713 583.584 260.225 583.947 260.886C584.31 261.537 584.491 262.289 584.491 263.142ZM582.587 262.566C582.576 261.894 582.336 261.356 581.867 260.95C581.398 260.545 580.816 260.342 580.123 260.342C579.494 260.342 578.955 260.545 578.507 260.95C578.059 261.345 577.792 261.884 577.707 262.566H582.587Z"
          fill="#101111"
        />
        <path
          fill-rule="evenodd"
          clip-rule="evenodd"
          d="M15.5 340.561C15.469 332.011 8.54135 325.09 0 325.09C8.56041 325.09 15.5 318.137 15.5 309.561C15.5309 318.111 22.4586 325.032 31 325.032C22.4394 325.032 15.5 331.985 15.5 340.561Z"
          fill="white"
        />
        <path
          fill-rule="evenodd"
          clip-rule="evenodd"
          d="M918.5 98C918.469 89.4501 911.541 82.5287 903 82.5287C911.56 82.5287 918.5 75.5762 918.5 67C918.531 75.5499 925.459 82.4713 934 82.4713C925.439 82.4713 918.5 89.4238 918.5 98Z"
          fill="white"
        />
        <line
          x1="191.733"
          y1="1.56067"
          x2="191.733"
          y2="568.35"
          stroke="white"
          stroke-opacity="0.2"
        />
        <path
          d="M736 324.561L736 568.561"
          stroke="url(#paint2_linear_245_8)"
          stroke-opacity="0.2"
        />
        <path
          d="M736 1.56079L736 81.5608"
          stroke="url(#paint3_linear_245_8)"
          stroke-opacity="0.2"
        />
        <path
          d="M554 324.561L554 568.561"
          stroke="url(#paint4_linear_245_8)"
          stroke-opacity="0.2"
        />
        <path
          d="M554 1.56079L554 81.5608"
          stroke="url(#paint5_linear_245_8)"
          stroke-opacity="0.2"
        />
        <path
          d="M373 324.561L373 568.561"
          stroke="url(#paint6_linear_245_8)"
          stroke-opacity="0.2"
        />
        <path
          d="M373 1.56079L373 81.5608"
          stroke="url(#paint7_linear_245_8)"
          stroke-opacity="0.2"
        />
        <line
          x1="917.947"
          y1="1.56067"
          x2="917.947"
          y2="568.35"
          stroke="white"
          stroke-opacity="0.2"
        />
        <line
          x1="1099.5"
          y1="1.56067"
          x2="1099.5"
          y2="568.35"
          stroke="white"
          stroke-opacity="0.2"
        />
        <line
          x1="9.5"
          y1="1.56079"
          x2="9.49998"
          y2="568.35"
          stroke="white"
          stroke-opacity="0.2"
        />
        <line
          x1="9.68066"
          y1="405.056"
          x2="1095.61"
          y2="405.056"
          stroke="white"
          stroke-opacity="0.2"
        />
        <line
          x1="9.68066"
          y1="324.257"
          x2="1095.61"
          y2="324.257"
          stroke="white"
          stroke-opacity="0.2"
        />
        <line
          x1="10"
          y1="243.061"
          x2="192"
          y2="243.061"
          stroke="white"
          stroke-opacity="0.2"
        />
        <line
          x1="917"
          y1="243.061"
          x2="1096"
          y2="243.061"
          stroke="white"
          stroke-opacity="0.2"
        />
        <line
          x1="919"
          y1="163.061"
          x2="1096"
          y2="163.061"
          stroke="white"
          stroke-opacity="0.2"
        />
        <line
          x1="10"
          y1="163.061"
          x2="192"
          y2="163.061"
          stroke="white"
          stroke-opacity="0.2"
        />
        <line
          x1="9.68066"
          y1="81.8604"
          x2="1095.61"
          y2="81.8604"
          stroke="white"
          stroke-opacity="0.2"
        />
        <line
          x1="9.68066"
          y1="1.06079"
          x2="1095.61"
          y2="1.06081"
          stroke="white"
          stroke-opacity="0.2"
        />
        <line
          x1="9.68066"
          y1="485.855"
          x2="1095.61"
          y2="485.855"
          stroke="white"
          stroke-opacity="0.2"
        />
        <defs>
          <linearGradient
            id="paint0_linear_245_8"
            x1="494.526"
            y1="262.267"
            x2="613.474"
            y2="262.267"
            gradientUnits="userSpaceOnUse"
          >
            <stop stop-color="#7A87FB" />
            <stop offset="1" stop-color="#FFD49C" />
          </linearGradient>
          <linearGradient
            id="paint1_linear_245_8"
            x1="613"
            y1="259.5"
            x2="495"
            y2="262"
            gradientUnits="userSpaceOnUse"
          >
            <stop stop-color="#7A87FB" />
            <stop offset="1" stop-color="#FFD49C" />
          </linearGradient>
          <linearGradient
            id="paint2_linear_245_8"
            x1="736.197"
            y1="257.487"
            x2="736.59"
            y2="257.487"
            gradientUnits="userSpaceOnUse"
          >
            <stop stop-color="white" />
            <stop offset="1" stop-color="white" stop-opacity="0" />
          </linearGradient>
          <linearGradient
            id="paint3_linear_245_8"
            x1="736.005"
            y1="254.874"
            x2="736.014"
            y2="254.874"
            gradientUnits="userSpaceOnUse"
          >
            <stop stop-color="white" />
            <stop offset="1" stop-color="white" stop-opacity="0" />
          </linearGradient>
          <linearGradient
            id="paint4_linear_245_8"
            x1="554.197"
            y1="257.487"
            x2="554.59"
            y2="257.487"
            gradientUnits="userSpaceOnUse"
          >
            <stop stop-color="white" />
            <stop offset="1" stop-color="white" stop-opacity="0" />
          </linearGradient>
          <linearGradient
            id="paint5_linear_245_8"
            x1="554.005"
            y1="254.874"
            x2="554.014"
            y2="254.874"
            gradientUnits="userSpaceOnUse"
          >
            <stop stop-color="white" />
            <stop offset="1" stop-color="white" stop-opacity="0" />
          </linearGradient>
          <linearGradient
            id="paint6_linear_245_8"
            x1="373.197"
            y1="257.487"
            x2="373.59"
            y2="257.487"
            gradientUnits="userSpaceOnUse"
          >
            <stop stop-color="white" />
            <stop offset="1" stop-color="white" stop-opacity="0" />
          </linearGradient>
          <linearGradient
            id="paint7_linear_245_8"
            x1="373.005"
            y1="254.874"
            x2="373.014"
            y2="254.874"
            gradientUnits="userSpaceOnUse"
          >
            <stop stop-color="white" />
            <stop offset="1" stop-color="white" stop-opacity="0" />
          </linearGradient>
        </defs>
      </svg>