<svg width="24" height="24" viewBox="0 0 24 24" fill="none" xmlns="http://www.w3.org/2000/svg">
<path d="M12 0L2.52405 0.994V18.362L12 24L21.476 18.362V0.994L12.099 0.01L12 0ZM20.236 17.657L12 22.557L3.76405 17.657V10.538L11.964 15.419L11.978 16.304L6.35205 12.955L6.34405 13.815L11.992 17.209L12.007 18.117L6.36005 14.757L6.35205 15.617L12 19.01L17.703 15.598V14.736L17.695 14.74V11.935L20.235 10.418V17.656L20.236 17.657ZM20.23 9.495L17.976 10.823L16.936 11.436L11.976 8.485L11.967 9.343L16.207 11.864L16.17 11.887L16.078 11.941L15.476 12.296L11.976 10.213L11.967 11.072L14.73 12.715L14.078 13.151L14.063 13.161L11.975 11.931L11.967 12.789L13.337 13.596L11.942 14.433L3.78205 9.583L11.954 4.671L20.23 9.495ZM20.236 8.631L11.956 3.749H11.954L3.76405 8.626V2.11L12 1.246L20.237 2.11V8.63L20.236 8.631Z" fill="white"/>
</svg>
