<svg width="24" height="24" viewBox="0 0 24 24" fill="none" xmlns="http://www.w3.org/2000/svg">
<g clip-path="url(#clip0_15_178)">
<path d="M7.679 0.626404C7.1784 0.626404 6.731 0.738504 6.3492 0.959404C5.9822 1.1719 5.6737 1.4885 5.4322 1.9005C5.206 2.2865 5.0392 2.7565 4.9365 3.2969C4.7387 4.3386 4.7815 5.6428 5.0605 7.0676C5.0958 7.247 5.1345 7.4286 5.1762 7.609C4.96003 7.67438 4.74519 7.74406 4.5318 7.818C3.1868 8.287 2.0619 8.8997 1.279 9.5903C0.873 9.9479 0.559 10.326 0.3441 10.7138C0.1158 11.1263 0 11.5493 0 11.9712C0 12.8172 0.4686 13.6742 1.355 14.4518C2.1897 15.1841 3.37 15.8235 4.7673 16.3014C4.8971 16.3455 5.0293 16.3884 5.1621 16.4294C5.11569 16.6316 5.07298 16.8346 5.034 17.0384C4.7682 18.4378 4.7372 19.7183 4.9437 20.7416C5.051 21.2716 5.2213 21.7328 5.45 22.1126C5.6932 22.5164 6.0019 22.8282 6.3674 23.039C6.7525 23.261 7.2058 23.3736 7.7146 23.3736C8.4073 23.3736 9.1818 23.1682 10.0166 22.7631C10.835 22.366 11.6703 21.7972 12.4993 21.0726C12.632 20.9567 12.7623 20.8382 12.8902 20.717H13.0865L19.0366 20.7166C19.9045 20.7166 20.653 20.5899 21.2823 20.3366C21.9128 20.0837 22.4259 19.7424 22.8298 19.3139C23.2336 18.8853 23.5281 18.374 23.7169 17.78C23.9057 17.191 24 16.553 24 15.8713C24.0005 14.6829 23.7848 13.6994 23.3584 12.9105C22.9353 12.1326 22.313 11.628 21.4914 11.3966C21.4851 11.3941 21.4797 11.3896 21.476 11.3839C21.4724 11.3781 21.4707 11.3713 21.4712 11.3645C21.4709 11.3585 21.4721 11.3526 21.4748 11.3473C21.4775 11.342 21.4816 11.3375 21.4866 11.3342C22.0984 10.9941 22.5686 10.5097 22.8981 9.8917C23.2301 9.2685 23.3961 8.51854 23.3961 7.6418C23.3961 6.1954 23.0301 5.1194 22.3015 4.4038C21.5728 3.688 20.6027 3.3323 19.3951 3.3323H12.8827C12.7813 3.237 12.6786 3.14303 12.5747 3.0504C11.7139 2.2867 10.8555 1.6874 10.0227 1.2708C9.1688 0.843204 8.3802 0.626404 7.679 0.626404ZM7.6862 2.3258C8.12 2.3258 8.6814 2.4961 9.3092 2.8183C9.9898 3.168 10.7277 3.688 11.4433 4.3234C11.4877 4.3628 11.5331 4.40374 11.5794 4.4462C10.95 5.1422 10.3297 5.9156 9.7334 6.7482C8.7174 6.8474 7.7407 6.9956 6.8263 7.1892C6.79333 7.04493 6.76249 6.90019 6.7338 6.755L6.7311 6.7401C6.5131 5.6263 6.46 4.6085 6.5775 3.7983C6.679 3.102 6.9062 2.6043 7.202 2.433C7.3248 2.3618 7.4878 2.3258 7.6862 2.3258ZM12.8467 5.5428V18.4547L12.081 17.5093L11.5808 16.8918C11.3283 16.5801 10.9238 16.0032 10.4417 15.2678C10.1656 14.8476 9.90048 14.4202 9.6466 13.9862L9.6321 13.9612C9.4011 13.5628 9.2294 13.2419 9.0915 12.9842C8.91804 12.6595 8.74919 12.3324 8.585 12.0029L8.615 11.9446L8.6168 11.9413C8.79812 11.5716 8.98679 11.2056 9.1827 10.8434L9.1844 10.8404L9.3918 10.438L9.6981 9.9305L9.7001 9.9272C9.8144 9.7325 9.9331 9.536 10.0527 9.3432L10.2635 8.995C10.5441 8.5305 10.7696 8.1917 11.1255 7.7007C11.3172 7.4365 11.499 7.2045 11.7871 6.8445L11.8019 6.8258L11.8074 6.8188C11.9244 6.6697 12.0424 6.5227 12.1583 6.3819L12.1621 6.3772L12.1644 6.3744C12.39 6.0957 12.6175 5.81856 12.8467 5.5428ZM15.2374 5.7947H19.066C19.7083 5.7947 20.1996 5.9751 20.5395 6.331C20.8794 6.6869 21.0492 7.3054 21.0492 8.1826C21.0492 8.9629 20.8604 9.5576 20.4825 9.9768C20.1045 10.3958 19.6325 10.6008 19.0656 10.6008H15.2372C15.2231 10.6008 15.2116 10.5859 15.2116 10.5676L15.2118 5.8277C15.2118 5.8095 15.2231 5.7947 15.2374 5.7947ZM8.498 8.6164C8.22213 9.068 7.95767 9.52648 7.7049 9.9914C7.55547 9.6087 7.41632 9.22206 7.2876 8.8319C7.68907 8.7493 8.09269 8.67744 8.498 8.6164ZM5.6334 9.2498C5.9214 10.1422 6.2817 11.0655 6.7049 11.9975C6.2752 12.9449 5.9101 13.8829 5.6181 14.7886C5.51751 14.7572 5.41733 14.7245 5.3176 14.6904C4.1559 14.2934 3.1884 13.7807 2.5196 13.2081C2.008 12.77 1.7026 12.3078 1.7026 11.9717C1.7026 11.6267 2.0081 11.1822 2.541 10.7514C3.1613 10.2498 4.044 9.7914 5.092 9.4262C5.27133 9.36398 5.45183 9.30517 5.6334 9.2498ZM15.2372 12.7925H19.3856C20.1036 12.7925 20.6552 13.0169 21.0556 13.4845C21.456 13.9521 21.6526 14.6102 21.6526 15.4728C21.6528 16.3499 21.4522 17.0323 21.0558 17.5098C20.6626 17.992 20.1038 18.2316 19.3858 18.2316H15.2372C15.2231 18.2316 15.2116 18.2168 15.2116 18.1986V12.8256C15.2116 12.8073 15.2229 12.7925 15.2372 12.7925ZM7.7065 14.001C7.9669 14.4783 8.23966 14.9488 8.5245 15.412C8.10558 15.3545 7.68841 15.2849 7.2735 15.2033C7.4026 14.8101 7.5477 14.4073 7.7065 14.001ZM6.8128 16.8454C7.715 17.03 8.7029 17.1692 9.7536 17.2594C10.3556 18.0978 10.9811 18.8764 11.6151 19.5764C11.5368 19.6485 11.4579 19.7194 11.3794 19.7884C10.4616 20.5906 9.54 21.1705 8.7145 21.4655L8.6974 21.4716C8.3274 21.6022 7.9971 21.6685 7.7162 21.6685C7.5089 21.6685 7.3415 21.6325 7.2187 21.5618C6.9197 21.3893 6.687 20.9024 6.5803 20.2258C6.4556 19.4374 6.4993 18.4442 6.7063 17.3538C6.7386 17.1846 6.7741 17.0146 6.8128 16.8454Z" fill="white"/>
</g>
<defs>
<clipPath id="clip0_15_178">
<rect width="24" height="24" fill="white"/>
</clipPath>
</defs>
</svg>
