<svg width="24" height="24" viewBox="0 0 24 24" fill="none" xmlns="http://www.w3.org/2000/svg">
<g clip-path="url(#clip0_16_187)">
<path d="M22.219 11.784L11.784 22.219C11.377 22.626 11.377 23.287 11.784 23.695C12.191 24.102 12.852 24.102 13.26 23.695L23.695 13.26C24.102 12.852 24.102 12.191 23.695 11.784C23.287 11.377 22.626 11.377 22.219 11.784ZM20.132 0.305006L0.305006 20.132C-0.101994 20.539 -0.101994 21.2 0.305006 21.608C0.713006 22.015 1.37401 22.015 1.78101 21.608L21.608 1.78101C22.015 1.37401 22.015 0.713006 21.608 0.305006C21.2 -0.101994 20.539 -0.101994 20.132 0.305006Z" fill="white"/>
</g>
<defs>
<clipPath id="clip0_16_187">
<rect width="24" height="24" fill="white"/>
</clipPath>
</defs>
</svg>
